<svg id="svg" version="1.1" xmlns="http://www.w3.org/2000/svg" xmlns:xlink="http://www.w3.org/1999/xlink" width="400" height="400" viewBox="0, 0, 400,400"><g id="svgg"><path id="path0" d="M135.200 128.422 C 113.136 128.637,109.513 128.757,107.613 129.335 C 106.410 129.701,105.073 130.000,104.641 130.000 C 103.775 130.000,99.346 131.345,97.286 132.233 C 96.564 132.545,95.662 132.800,95.282 132.800 C 94.902 132.800,92.433 134.024,89.796 135.520 C 87.158 137.016,84.707 138.352,84.348 138.489 C 77.689 141.033,63.325 156.298,58.112 166.370 C 56.907 168.696,55.563 171.188,55.125 171.906 C 53.500 174.567,51.076 182.266,49.427 190.000 C 47.887 197.220,47.870 214.792,49.397 220.654 C 49.729 221.927,50.000 223.360,50.000 223.838 C 50.000 224.668,50.589 226.872,51.862 230.800 C 52.183 231.790,52.586 233.140,52.758 233.800 C 53.472 236.532,59.966 248.678,62.792 252.567 C 66.396 257.526,72.862 264.479,76.600 267.413 C 77.700 268.277,78.803 269.167,79.050 269.392 C 79.298 269.616,80.790 270.610,82.366 271.600 C 83.942 272.590,86.380 274.160,87.783 275.090 C 89.187 276.019,91.565 277.261,93.068 277.848 C 94.570 278.436,96.367 279.160,97.060 279.458 C 97.754 279.756,98.536 280.000,98.800 280.000 C 99.064 280.000,99.846 280.264,100.540 280.587 C 106.520 283.369,116.393 284.143,139.400 283.634 C 150.620 283.386,171.230 283.086,185.200 282.968 C 213.117 282.732,216.274 282.437,221.200 279.600 C 221.530 279.409,222.927 278.664,224.304 277.943 C 226.981 276.542,229.616 274.020,233.442 269.200 C 236.218 265.703,237.964 262.324,238.817 258.800 C 240.247 252.894,240.294 253.001,236.117 252.600 L 233.235 252.322 232.984 253.461 C 232.262 256.736,230.940 260.401,229.744 262.442 C 229.005 263.703,228.400 264.912,228.400 265.130 C 228.400 265.900,222.623 270.860,220.030 272.316 C 213.712 275.864,212.449 276.122,201.000 276.199 C 196.160 276.231,179.600 276.488,164.200 276.769 C 128.484 277.420,112.942 277.222,109.000 276.066 C 105.223 274.957,102.458 274.028,100.940 273.357 C 100.246 273.051,99.481 272.800,99.238 272.800 C 98.996 272.800,98.125 272.440,97.304 272.000 C 96.484 271.560,95.610 271.200,95.362 271.200 C 93.936 271.200,86.472 266.563,82.278 263.070 C 75.251 257.219,74.511 256.558,73.571 255.290 C 73.037 254.569,72.265 253.579,71.856 253.090 C 69.923 250.779,67.648 247.614,66.615 245.800 C 65.989 244.700,64.994 243.170,64.406 242.400 C 63.817 241.630,62.962 240.190,62.506 239.200 C 60.992 235.914,60.000 233.503,60.000 233.110 C 60.000 232.896,59.749 232.154,59.442 231.460 C 56.527 224.878,53.847 207.686,54.746 201.333 C 55.021 199.390,55.414 196.540,55.620 195.000 C 56.832 185.943,61.155 173.051,64.406 168.800 C 64.994 168.030,65.987 166.500,66.611 165.400 C 70.205 159.067,79.205 149.771,85.000 146.406 C 85.880 145.895,86.780 145.271,87.000 145.019 C 88.019 143.851,95.300 140.000,96.489 140.000 C 96.782 140.000,97.377 139.753,97.811 139.451 C 98.245 139.149,99.197 138.772,99.927 138.613 C 100.657 138.455,101.737 138.073,102.327 137.765 C 102.917 137.457,103.889 137.204,104.486 137.202 C 105.083 137.201,106.343 136.941,107.286 136.624 C 112.963 134.718,137.083 134.374,256.194 134.503 L 345.788 134.600 345.655 137.800 C 345.582 139.560,345.286 141.720,344.997 142.600 C 344.709 143.480,344.343 144.830,344.184 145.600 C 343.885 147.050,341.888 151.354,340.156 154.280 C 336.591 160.305,323.733 166.334,316.777 165.241 C 314.175 164.832,258.799 165.306,258.092 165.743 C 257.206 166.290,257.446 171.169,258.375 171.513 C 258.801 171.671,274.326 171.701,292.875 171.581 L 326.600 171.362 329.200 170.345 C 339.938 166.147,347.056 159.028,350.420 149.123 C 351.278 146.596,352.913 133.084,352.722 130.102 L 352.600 128.200 256.600 128.187 C 203.800 128.180,149.170 128.286,135.200 128.422 M115.000 166.225 C 112.528 167.503,112.600 167.158,112.600 177.753 C 112.600 191.189,110.669 189.998,132.460 190.006 C 150.977 190.013,150.597 189.941,147.175 192.789 C 145.795 193.937,144.456 195.085,144.200 195.339 C 142.498 197.028,136.248 202.627,135.213 203.391 C 134.522 203.900,132.570 205.641,130.874 207.259 C 129.179 208.876,127.090 210.740,126.233 211.400 C 125.376 212.060,123.308 213.931,121.637 215.557 C 119.967 217.184,117.389 219.496,115.910 220.695 C 111.375 224.369,111.400 224.293,111.400 234.600 C 111.400 244.487,111.516 244.946,114.349 246.304 C 116.589 247.378,193.000 247.377,195.280 246.303 C 198.048 244.999,198.472 243.232,198.325 233.600 C 198.130 220.784,199.681 221.603,175.565 221.594 C 160.750 221.589,156.711 221.387,157.612 220.700 C 158.760 219.822,162.806 216.374,163.596 215.600 C 164.156 215.050,165.962 213.528,167.608 212.219 C 170.657 209.792,173.262 207.615,176.964 204.400 C 182.778 199.350,183.789 198.514,185.330 197.483 C 186.249 196.868,187.552 195.788,188.227 195.083 C 188.902 194.377,190.901 192.506,192.670 190.925 C 197.303 186.782,197.268 186.894,197.122 176.570 L 197.000 167.953 196.000 167.158 C 194.052 165.611,193.764 165.600,154.674 165.602 C 120.701 165.605,116.060 165.677,115.000 166.225 M320.257 179.508 C 319.910 180.070,318.902 183.260,318.585 184.800 C 317.305 191.018,308.310 199.913,301.783 201.415 C 301.132 201.565,299.813 201.943,298.850 202.256 C 297.372 202.736,292.736 202.781,268.969 202.547 C 236.987 202.233,239.600 201.943,239.600 205.800 C 239.600 209.348,237.619 209.074,266.000 209.457 C 304.057 209.971,303.604 210.035,313.403 202.798 C 318.420 199.092,320.500 196.511,323.394 190.400 C 323.967 189.190,324.678 187.750,324.974 187.200 C 325.271 186.650,325.734 185.125,326.003 183.810 C 326.273 182.496,326.581 181.193,326.688 180.916 C 327.029 180.027,320.781 178.660,320.257 179.508 M281.124 215.993 C 280.721 216.243,280.343 217.181,280.190 218.307 C 279.662 222.187,277.224 227.575,274.823 230.167 C 265.651 240.063,265.869 240.000,241.105 240.000 C 230.853 240.000,222.181 240.109,221.833 240.243 C 220.682 240.684,220.933 246.718,222.114 247.014 C 224.593 247.636,260.982 246.953,263.200 246.242 C 267.167 244.972,273.904 241.098,277.062 238.270 C 282.287 233.593,289.308 217.750,286.834 216.221 C 286.081 215.756,281.781 215.584,281.124 215.993 " stroke="none" fill="#f6f6f7" fill-rule="evenodd"></path><path id="path1" d="M0.000 200.000 L 0.000 400.000 200.000 400.000 L 400.000 400.000 400.000 200.000 L 400.000 0.000 200.000 0.000 L 0.000 0.000 0.000 200.000 M352.722 130.102 C 352.913 133.084,351.278 146.596,350.420 149.123 C 348.506 154.758,346.941 157.179,342.060 162.053 C 337.192 166.914,335.982 167.694,329.200 170.345 L 326.600 171.362 292.875 171.581 C 274.326 171.701,258.801 171.671,258.375 171.513 C 257.446 171.169,257.206 166.290,258.092 165.743 C 258.799 165.306,314.175 164.832,316.777 165.241 C 323.733 166.334,336.591 160.305,340.156 154.280 C 341.888 151.354,343.885 147.050,344.184 145.600 C 344.343 144.830,344.709 143.480,344.997 142.600 C 345.286 141.720,345.582 139.560,345.655 137.800 L 345.788 134.600 256.194 134.503 C 137.083 134.374,112.963 134.718,107.286 136.624 C 106.343 136.941,105.083 137.201,104.486 137.202 C 103.889 137.204,102.917 137.457,102.327 137.765 C 101.737 138.073,100.657 138.455,99.927 138.613 C 99.197 138.772,98.245 139.149,97.811 139.451 C 97.377 139.753,96.782 140.000,96.489 140.000 C 95.300 140.000,88.019 143.851,87.000 145.019 C 86.780 145.271,85.880 145.895,85.000 146.406 C 79.205 149.771,70.205 159.067,66.611 165.400 C 65.987 166.500,64.994 168.030,64.406 168.800 C 61.155 173.051,56.832 185.943,55.620 195.000 C 55.414 196.540,55.021 199.390,54.746 201.333 C 54.240 204.907,54.310 206.075,55.611 215.800 C 56.314 221.046,58.144 228.531,59.442 231.460 C 59.749 232.154,60.000 232.896,60.000 233.110 C 60.000 233.503,60.992 235.914,62.506 239.200 C 62.962 240.190,63.817 241.630,64.406 242.400 C 64.994 243.170,65.989 244.700,66.615 245.800 C 67.648 247.614,69.923 250.779,71.856 253.090 C 72.265 253.579,73.037 254.569,73.571 255.290 C 74.511 256.558,75.251 257.219,82.278 263.070 C 86.472 266.563,93.936 271.200,95.362 271.200 C 95.610 271.200,96.484 271.560,97.304 272.000 C 98.125 272.440,98.996 272.800,99.238 272.800 C 99.481 272.800,100.246 273.051,100.940 273.357 C 102.458 274.028,105.223 274.957,109.000 276.066 C 112.942 277.222,128.484 277.420,164.200 276.769 C 179.600 276.488,196.160 276.231,201.000 276.199 C 212.449 276.122,213.712 275.864,220.030 272.316 C 222.623 270.860,228.400 265.900,228.400 265.130 C 228.400 264.912,229.005 263.703,229.744 262.442 C 230.940 260.401,232.262 256.736,232.984 253.461 L 233.235 252.322 236.117 252.600 C 240.294 253.001,240.247 252.894,238.817 258.800 C 237.964 262.324,236.218 265.703,233.442 269.200 C 229.616 274.020,226.981 276.542,224.304 277.943 C 222.927 278.664,221.530 279.409,221.200 279.600 C 216.274 282.437,213.117 282.732,185.200 282.968 C 171.230 283.086,150.620 283.386,139.400 283.634 C 116.393 284.143,106.520 283.369,100.540 280.587 C 99.846 280.264,99.064 280.000,98.800 280.000 C 98.536 280.000,97.754 279.756,97.060 279.458 C 96.367 279.160,94.570 278.436,93.068 277.848 C 91.565 277.261,89.187 276.019,87.783 275.090 C 86.380 274.160,83.942 272.590,82.366 271.600 C 80.790 270.610,79.298 269.616,79.050 269.392 C 78.803 269.167,77.700 268.277,76.600 267.413 C 72.862 264.479,66.396 257.526,62.792 252.567 C 59.966 248.678,53.472 236.532,52.758 233.800 C 52.586 233.140,52.183 231.790,51.862 230.800 C 50.589 226.872,50.000 224.668,50.000 223.838 C 50.000 223.360,49.729 221.927,49.397 220.654 C 47.870 214.792,47.887 197.220,49.427 190.000 C 51.076 182.266,53.500 174.567,55.125 171.906 C 55.563 171.188,56.907 168.696,58.112 166.370 C 63.325 156.298,77.689 141.033,84.348 138.489 C 84.707 138.352,87.158 137.016,89.796 135.520 C 92.433 134.024,94.902 132.800,95.282 132.800 C 95.662 132.800,96.564 132.545,97.286 132.233 C 99.346 131.345,103.775 130.000,104.641 130.000 C 105.073 130.000,106.410 129.701,107.613 129.335 C 110.722 128.389,138.984 128.171,256.600 128.187 L 352.600 128.200 352.722 130.102 M194.074 165.982 C 194.583 166.192,195.450 166.721,196.000 167.158 L 197.000 167.953 197.122 176.570 C 197.268 186.894,197.303 186.782,192.670 190.925 C 190.901 192.506,188.902 194.377,188.227 195.083 C 187.552 195.788,186.249 196.868,185.330 197.483 C 183.789 198.514,182.778 199.350,176.964 204.400 C 173.262 207.615,170.657 209.792,167.608 212.219 C 165.962 213.528,164.156 215.050,163.596 215.600 C 162.806 216.374,158.760 219.822,157.612 220.700 C 156.711 221.387,160.750 221.589,175.565 221.594 C 199.681 221.603,198.130 220.784,198.325 233.600 C 198.472 243.232,198.048 244.999,195.280 246.303 C 193.000 247.377,116.589 247.378,114.349 246.304 C 111.516 244.946,111.400 244.487,111.400 234.600 C 111.400 224.293,111.375 224.369,115.910 220.695 C 117.389 219.496,119.967 217.184,121.637 215.557 C 123.308 213.931,125.376 212.060,126.233 211.400 C 127.090 210.740,129.179 208.876,130.874 207.259 C 132.570 205.641,134.522 203.900,135.213 203.391 C 136.248 202.627,142.498 197.028,144.200 195.339 C 144.456 195.085,145.795 193.937,147.175 192.789 C 150.597 189.941,150.977 190.013,132.460 190.006 C 110.669 189.998,112.600 191.189,112.600 177.753 C 112.600 167.158,112.528 167.503,115.000 166.225 C 116.418 165.492,192.321 165.259,194.074 165.982 M325.941 180.059 C 326.458 180.253,326.794 180.638,326.688 180.916 C 326.581 181.193,326.273 182.496,326.003 183.810 C 325.734 185.125,325.271 186.650,324.974 187.200 C 324.678 187.750,323.967 189.190,323.394 190.400 C 318.753 200.202,310.848 206.637,300.582 208.972 C 296.299 209.946,241.329 209.706,240.100 208.708 C 239.345 208.095,239.439 203.432,240.219 202.784 C 240.717 202.371,246.332 202.325,268.969 202.547 C 292.736 202.781,297.372 202.736,298.850 202.256 C 299.813 201.943,301.132 201.565,301.783 201.415 C 308.310 199.913,317.305 191.018,318.585 184.800 C 318.902 183.260,319.910 180.070,320.257 179.508 C 320.498 179.117,324.445 179.500,325.941 180.059 M286.834 216.221 C 289.308 217.750,282.287 233.593,277.062 238.270 C 273.904 241.098,267.167 244.972,263.200 246.242 C 260.982 246.953,224.593 247.636,222.114 247.014 C 220.933 246.718,220.682 240.684,221.833 240.243 C 222.181 240.109,230.853 240.000,241.105 240.000 C 265.869 240.000,265.651 240.063,274.823 230.167 C 277.224 227.575,279.662 222.187,280.190 218.307 C 280.343 217.181,280.721 216.243,281.124 215.993 C 281.781 215.584,286.081 215.756,286.834 216.221 " stroke="none" fill="#1c1c34" fill-rule="evenodd"></path></g></svg>